<?xml version="1.0" encoding="utf-8"?>
<!-- Generator: Adobe Illustrator 16.0.4, SVG Export Plug-In . SVG Version: 6.00 Build 0)  -->
<!DOCTYPE svg PUBLIC "-//W3C//DTD SVG 1.1//EN" "http://www.w3.org/Graphics/SVG/1.1/DTD/svg11.dtd">
<svg version="1.1" id="Layer_1" xmlns="http://www.w3.org/2000/svg" xmlns:xlink="http://www.w3.org/1999/xlink" x="0px" y="0px"
	 width="260px" height="210px" viewBox="290.945 356.14 260 210" enable-background="new 290.945 356.14 260 210"
	 xml:space="preserve">
<title>logo</title>
<path fill="#FFFFFF" d="M508.453,389.716c-16.513,20.519-25.999,42.231-27.756,45.253c-1.757,3.021-9.064,15.74-9.064,15.74
	s-6.043-19.816-28.95-19.816c-22.908,0-43.917,15.671-67.527,60.571c0,0-20.659,4.919-33.026,4.919
	c-0.281,0-0.491,0.211-0.491,0.492c0,0.141,0.07,0.211,0.07,0.281c2.038,2.74,10.259,11.383,31.199,11.031
	c24.804-0.351,45.394-8.081,70.62-8.081c17.496,0,27.193,1.336,31.479,2.179c1.687,0.352,3.373-0.491,4.217-1.967l17.285-30.707
	c0.703-1.194,0.281-2.74-0.983-3.444c-0.281-0.14-0.562-0.28-0.913-0.28c-7.87-1.054-26.772-3.021-41.388-0.632
	c-18.902,3.091-26,5.41-48.626,16.371c-4.497,2.18-13.913,5.342-13.913,5.342s18.761-11.243,26.912-15.951
	c17.006-9.908,36.469-14.827,56.145-14.054c4.287-8.292,9.627-18.059,13.421-20.52c3.794-2.458,17.427-8.431,21.15-15.95
	c3.725-7.519,5.341-22.907,7.52-26.771c2.178-3.865,4.919-16.303,30.848-33.448C537.405,364.138,524.967,369.128,508.453,389.716
	L508.453,389.716z M354.778,528.425c-3.724,0-5.059,1.968-5.059,1.968l-1.265-1.968h-6.043v28.74l7.167-2.389v-8.012
	c1.546,0.773,3.303,1.125,5.06,1.055c3.232,0,5.832-2.318,5.832-8.644C360.469,532.851,359.556,528.425,354.778,528.425
	L354.778,528.425z M351.405,542.76c-0.703,0.07-1.335-0.141-1.897-0.492v-7.519c0,0,0.07-0.843,1.897-0.843s1.897,0.983,1.897,4.849
	C353.302,542.619,352.81,542.76,351.405,542.76z M431.58,528.425c-3.725,0-5.059,1.968-5.059,1.968l-1.266-1.968h-6.043v28.74
	l7.168-2.389v-8.012c1.546,0.773,3.303,1.125,5.06,1.055c3.232,0,5.832-2.318,5.832-8.644
	C437.273,532.851,436.43,528.425,431.58,528.425L431.58,528.425z M428.279,542.76c-0.703,0.07-1.335-0.141-1.897-0.492v-7.519
	c0,0,0.07-0.843,1.897-0.843c1.826,0,1.896,0.983,1.896,4.849C430.175,542.619,429.684,542.76,428.279,542.76z M460.672,528.425
	c-3.725,0-5.06,1.968-5.06,1.968l-1.266-1.968h-6.042v28.74l7.166-2.389v-8.012c1.547,0.773,3.304,1.125,5.061,1.055
	c3.231,0,5.832-2.318,5.832-8.644C466.364,532.851,465.52,528.425,460.672,528.425L460.672,528.425z M457.369,542.76
	c-0.704,0.07-1.336-0.141-1.898-0.492v-7.519c0,0,0.071-0.843,1.898-0.843c1.826,0,1.896,0.983,1.896,4.849
	C459.266,542.619,458.775,542.76,457.369,542.76z M369.253,522.733c0-1.968-1.546-3.514-3.513-3.514
	c-1.968,0-3.513,1.546-3.513,3.514c0,1.967,1.545,3.514,3.513,3.514C367.707,526.247,369.253,524.7,369.253,522.733z
	 M361.946,547.678h7.518v-19.254h-7.448L361.946,547.678z M446.267,522.733c0-1.968-1.546-3.514-3.514-3.514
	c-1.967,0-3.514,1.546-3.514,3.514c0,1.967,1.547,3.514,3.514,3.514C444.721,526.316,446.267,524.7,446.267,522.733
	C446.337,522.803,446.337,522.803,446.267,522.733z M439.03,547.678h7.589v-19.254h-7.52L439.03,547.678z M480.628,528.425h-6.676
	c-4.849,0-5.622,5.551-5.622,6.465c-0.07,1.195-0.07,4.286,0,6.535c0.141,4.005,3.303,6.254,5.48,6.254h5.412
	c1.968,0.07,3.935-0.21,5.762-0.914v-4.638c-2.319,0.703-6.113,0.633-8.012,0.633c-1.896,0-1.545-2.318-1.545-2.318h5.832
	c3.093,0,4.216-2.179,4.216-3.162v-4.356C485.547,529.55,482.174,528.425,480.628,528.425L480.628,528.425z M478.591,535.1
	c0,0.492-0.424,0.913-0.914,0.913h-2.249v-1.896c0-0.492,0.421-0.914,0.913-0.914h1.405c0.492,0,0.914,0.422,0.914,0.914v0.983
	H478.591z M383.868,528.425h-6.675c-4.848,0-5.621,5.551-5.621,6.465c-0.07,1.195-0.07,4.286,0,6.604
	c0.141,4.007,3.302,6.255,5.481,6.255h5.411c1.967,0.07,3.935-0.211,5.762-0.913v-4.638c-2.319,0.702-6.113,0.632-8.011,0.632
	c-1.897,0-1.545-2.318-1.545-2.318h5.832c3.092,0,4.216-2.18,4.216-3.163v-4.356C388.718,529.55,385.415,528.425,383.868,528.425
	L383.868,528.425z M381.761,535.1c0,0.492-0.422,0.913-0.914,0.913h-2.249v-1.896c0-0.492,0.422-0.914,0.914-0.914h1.405
	c0.492,0,0.914,0.422,0.914,0.914v0.983H381.761z M401.014,529.479c0,0-0.914-1.406-4.567-1.406
	c-6.465,0.071-6.325,6.957-6.325,9.064c0,9.769,3.303,10.541,6.395,10.541c1.687,0.07,3.373-0.633,4.498-1.967l1.125,1.686h5.902
	v-28.178h-6.957L401.014,529.479z M401.014,541.354c-0.492,0.491-1.195,0.772-1.897,0.772c-1.265,0-1.967-0.491-1.967-4.216
	s0.21-4.778,1.967-4.778s1.897,0.492,1.897,0.492V541.354z M494.33,530.814l-0.913-2.39l-6.185,0.142v19.041h7.027v-10.539
	c0-1.055,0.772-1.897,1.826-1.968h3.935v-6.886h-2.247C495.947,528.215,494.33,530.181,494.33,530.814L494.33,530.814z"/>
</svg>
